<?xml version="1.0" standalone="no"?>
<!DOCTYPE svg PUBLIC "-//W3C//DTD SVG 20010904//EN"
 "http://www.w3.org/TR/2001/REC-SVG-20010904/DTD/svg10.dtd">
<svg version="1.0" xmlns="http://www.w3.org/2000/svg"
 width="258.000000pt" height="196.000000pt" viewBox="0 0 258.000000 196.000000"
 preserveAspectRatio="xMidYMid meet">

<g transform="translate(0.000000,196.000000) scale(0.100000,-0.100000)"
fill="#000000" stroke="none">
<path d="M1723 1605 c5 -10 0 -15 -14 -15 -12 0 -38 -13 -58 -29 -20 -15 -49
-35 -66 -44 -16 -9 -43 -27 -59 -42 -20 -17 -36 -23 -49 -19 -13 4 -17 2 -13
-5 4 -6 1 -11 -6 -11 -7 0 50 -33 128 -73 161 -83 223 -126 291 -201 87 -95
132 -203 134 -321 1 -80 14 -47 28 71 13 104 2 228 -29 325 -28 92 -102 215
-168 282 -62 63 -129 109 -119 82z"/>
<path d="M1115 1345 c28 -14 41 -24 30 -23 -20 3 -75 -49 -75 -71 0 -6 -7 -11
-15 -11 -8 0 -15 -9 -15 -21 0 -11 -20 -45 -45 -75 -24 -30 -42 -61 -39 -69 4
-10 0 -12 -17 -8 -19 5 -21 3 -17 -15 5 -19 2 -22 -20 -22 -21 0 -24 2 -12 10
8 5 11 10 5 10 -5 -1 -19 -8 -30 -16 -11 -10 -14 -14 -5 -11 8 2 30 -2 49 -10
19 -7 98 -27 175 -44 357 -78 518 -163 585 -309 33 -72 34 -171 3 -247 -12
-29 -19 -53 -16 -53 36 0 129 93 163 164 51 104 44 256 -18 381 -89 181 -281
323 -558 414 -155 51 -194 59 -128 26z"/>
<path d="M830 1040 c-8 -5 -10 -10 -5 -10 6 0 17 5 25 10 8 5 11 10 5 10 -5 0
-17 -5 -25 -10z"/>
<path d="M550 967 c0 -27 3 -46 8 -44 4 3 7 -9 8 -26 1 -36 13 -89 21 -97 3
-3 4 4 3 15 -6 57 9 82 39 66 12 -7 19 -16 16 -21 -3 -6 1 -7 10 -4 14 6 13 8
-4 20 -11 8 -38 42 -60 76 l-41 63 0 -48z"/>
<path d="M854 791 c4 -6 0 -11 -11 -12 -17 0 -17 -1 -1 -7 15 -6 13 -10 -12
-27 -17 -11 -30 -26 -30 -32 0 -7 -4 -13 -10 -13 -5 0 -10 -6 -10 -13 0 -7
-16 -28 -35 -47 -38 -39 -44 -52 -17 -44 14 5 14 4 2 -5 -11 -7 -20 -5 -34 7
-19 17 -19 17 0 -16 32 -56 113 -141 173 -181 126 -86 224 -120 368 -128 121
-7 174 8 222 63 29 33 61 116 61 158 0 44 -23 99 -56 135 -61 68 -187 108
-469 150 -44 7 -95 15 -114 18 -24 4 -32 2 -27 -6z"/>
<path d="M1130 202 c-30 -4 -55 -11 -55 -17 0 -18 107 -27 255 -21 80 2 156 8
169 12 l25 7 -23 8 c-29 11 -302 19 -371 11z"/>
</g>
</svg>
